<svg width="125" height="30" xmlns="http://www.w3.org/2000/svg">

 <g>
  <title>background</title>
  <rect fill="none" id="canvas_background" height="602" width="802" y="-1" x="-1"/>
 </g>
 <g>
  <title>Layer 1</title>
  <radialGradient spreadMethod="reflect" gradientUnits="userSpaceOnUse" r="33.002" cy="32" cx="32" id="svg_30">
   <stop stop-color="#efdcb1" offset="0"/>
   <stop stop-color="#f2e0bb" offset="0"/>
   <stop stop-color="#f2e0bc" offset="0.011"/>
   <stop stop-color="#f9edd2" offset="0.362"/>
   <stop stop-color="#fef4df" offset="0.699"/>
   <stop stop-color="#fff7e4" offset="1"/>
  </radialGradient>
  <linearGradient spreadMethod="reflect" y2="0" y1="1" x2="0.5" x1="0.5" id="svg_29">
   <stop stop-color="#41bfec" offset="0"/>
   <stop stop-color="#4cc5ef" offset="0.232"/>
   <stop stop-color="#6bd4f6" offset="0.644"/>
   <stop stop-color="#8ae4fd" offset="1"/>
  </linearGradient>
  <linearGradient spreadMethod="reflect" y2="0.42572" y1="0.94029" x2="0.57428" x1="0.05971" id="svg_28">
   <stop stop-color="#c6effd" offset="0"/>
   <stop stop-color="#b7ecfd" offset="0.375"/>
   <stop stop-color="#95e6fd" offset="1"/>
  </linearGradient>
  <linearGradient spreadMethod="reflect" y2="0.01383" y1="1.01383" x2="0.5" x1="0.5" id="svg_27">
   <stop stop-color="#42c6ee" offset="0"/>
   <stop stop-color="#3bc3ed" offset="0.48"/>
   <stop stop-color="#2ebeea" offset="1"/>
  </linearGradient>
  <g stroke="null" id="svg_37">
   <path stroke="null" id="svg_32" d="m33.05108,22.07069c0.28947,0.47058 0.87073,0.70063 1.46588,0.69801c1.01315,-0.00419 1.82541,0.77714 1.73799,1.70938c-0.077,0.82587 -0.89968,1.43479 -1.81557,1.43479l-5.70375,0l0,0.52403l-12.73676,0l-4.63155,0l-6.36838,0c-0.98999,0 -1.78662,-0.74989 -1.73451,-1.65646c0.04921,-0.8505 0.89215,-1.48772 1.83293,-1.48772l0.48052,0c0.70342,0 1.25978,-0.56752 1.14226,-1.22413c-0.09263,-0.51512 -0.62757,-0.87199 -1.2042,-0.87199l-2.83277,0c-0.98999,0 -1.78662,-0.74989 -1.73451,-1.65646c0.04921,-0.8505 0.89215,-1.48772 1.83293,-1.48772l3.66471,0c0.79952,0 1.44736,-0.58639 1.44736,-1.31007l0,0c0,-0.72368 -0.64784,-1.31007 -1.44736,-1.31007l0,0c-0.79952,0 -1.44736,-0.58639 -1.44736,-1.31007l0,0c0,-0.72368 0.64784,-1.31007 1.44736,-1.31007l4.92102,0l0,-3.66821l-4.34208,0c-1.15499,0 -2.08478,-0.87513 -2.02341,-1.93262c0.05732,-0.99199 1.04094,-1.73559 2.13804,-1.73559l4.22745,0l0,-2.09612l13.89464,0l3.47366,0l4.92102,0c1.15499,0 2.08478,0.87513 2.02341,1.93262c-0.05732,0.99199 -1.04094,1.73559 -2.13804,1.73559l-1.6222,0c-1.15499,0 -2.08478,0.87513 -2.02341,1.93262c0.05732,0.99199 1.04094,1.73559 2.13804,1.73559l1.33273,0c1.02878,0 1.84915,0.81015 1.72409,1.76388c-0.10363,0.79076 -0.89505,1.3478 -1.77388,1.38082c-0.693,0.0262 -1.22852,0.60421 -1.08494,1.26082c0.10884,0.49678 0.627,0.83478 1.18626,0.83478l2.55372,0c1.15499,0 2.08478,0.87513 2.02341,1.93262c-0.05732,0.99199 -1.04094,1.73559 -2.13804,1.73559l-1.33273,0c-1.26904,0 -2.21967,1.23147 -1.47399,2.44617zm-30.65737,-6.63841l0,0c0.79952,0 1.44736,-0.58639 1.44736,-1.31007l0,0c0,-0.72368 -0.64784,-1.31007 -1.44736,-1.31007l0,0c-0.79952,0 -1.44736,0.58639 -1.44736,1.31007l0,0c0,0.72368 0.64784,1.31007 1.44736,1.31007z" fill="url(#svg_30)"/>
   <path stroke="null" id="svg_33" d="m29.89352,28.53302l-19.68408,0c-0.95931,0 -1.73683,-0.70377 -1.73683,-1.57209l0,-24.10536c0,-0.86832 0.77752,-1.57209 1.73683,-1.57209l12.01713,0c0.46084,0 0.90257,0.16559 1.22794,0.46062l7.66695,6.93972c0.32595,0.2945 0.50889,0.69434 0.50889,1.11147l0,17.16564c0,0.86832 -0.77752,1.57209 -1.73683,1.57209z" fill="url(#svg_29)"/>
   <path stroke="null" id="svg_34" d="m31.12146,8.68383l-7.66695,-6.93972c-0.14763,-0.13363 -0.32189,-0.23686 -0.50831,-0.31442l0,6.14215c0,0.86832 0.77752,1.57209 1.73683,1.57209l6.7858,0c-0.0851,-0.16874 -0.19916,-0.32647 -0.34737,-0.4601z" fill="url(#svg_28)"/>
   <path stroke="null" id="svg_35" d="m24.68303,9.14393c-0.95931,0 -1.73683,-0.70377 -1.73683,-1.57209l0,1.57209c0,0.86832 0.77752,1.57209 1.73683,1.57209l6.94732,0l0,-0.92072c0,-0.22743 -0.05905,-0.44805 -0.16153,-0.65137l-6.7858,0z" fill="url(#svg_27)"/>
   <path stroke="null" id="svg_36" d="m19.47254,9.66796l-6.36838,0c-0.63973,0 -1.15789,-0.46901 -1.15789,-1.04806l0,0c0,-0.57905 0.51815,-1.04806 1.15789,-1.04806l6.36838,0c0.63973,0 1.15789,0.46901 1.15789,1.04806l0,0c0,0.57905 -0.51815,1.04806 -1.15789,1.04806zm3.47366,14.1488l-9.84204,0c-0.63973,0 -1.15789,-0.46901 -1.15789,-1.04806l0,0c0,-0.57905 0.51815,-1.04806 1.15789,-1.04806l9.84204,0c0.63973,0 1.15789,0.46901 1.15789,1.04806l0,0c0,0.57905 -0.51815,1.04806 -1.15789,1.04806zm-0.57894,-6.28835l5.21049,0c0.63973,0 1.15789,0.46901 1.15789,1.04806l0,0c0,0.57905 -0.51815,1.04806 -1.15789,1.04806l-5.21049,0c-0.63973,0 -1.15789,-0.46901 -1.15789,-1.04806l0,0c0,-0.57905 0.51815,-1.04806 1.15789,-1.04806zm-9.2631,0l5.21049,0c0.63973,0 1.15789,0.46901 1.15789,1.04806l0,0c0,0.57905 -0.51815,1.04806 -1.15789,1.04806l-5.21049,0c-0.63973,0 -1.15789,-0.46901 -1.15789,-1.04806l0,0c0,-0.57905 0.51815,-1.04806 1.15789,-1.04806zm0,-4.19224l9.2631,0c0.63973,0 1.15789,0.46901 1.15789,1.04806l0,0c0,0.57905 -0.51815,1.04806 -1.15789,1.04806l-9.2631,0c-0.63973,0 -1.15789,-0.46901 -1.15789,-1.04806l0,0c0,-0.57905 0.51815,-1.04806 1.15789,-1.04806zm13.3157,0l1.15789,0c0.63973,0 1.15789,0.46901 1.15789,1.04806l0,0c0,0.57905 -0.51815,1.04806 -1.15789,1.04806l-1.15789,0c-0.63973,0 -1.15789,-0.46901 -1.15789,-1.04806l0,0c0,-0.57905 0.51815,-1.04806 1.15789,-1.04806z" fill="#f1fcff"/>
  </g>
  <text font-weight="bold" xml:space="preserve" text-anchor="start" font-family="Arvo, sans-serif" font-size="24" id="svg_38" y="23.16514" x="40.94037" stroke-width="0" stroke="#000" fill="#ffffff">RECI</text>
 </g>
</svg>